<?xml version="1.0" encoding="utf-8"?>
<!-- Generator: Adobe Illustrator 15.0.0, SVG Export Plug-In . SVG Version: 6.00 Build 0)  -->
<!DOCTYPE svg PUBLIC "-//W3C//DTD SVG 1.1//EN" "http://www.w3.org/Graphics/SVG/1.1/DTD/svg11.dtd">
<svg version="1.1" id="Layer_1" xmlns="http://www.w3.org/2000/svg" xmlns:xlink="http://www.w3.org/1999/xlink" x="0px" y="0px"
	 width="189.662px" height="189.662px" viewBox="0 0 189.662 189.662" enable-background="new 0 0 189.662 189.662"
	 xml:space="preserve">
<symbol  id="ArdyCart1" viewBox="-69.553 -65.786 139.106 131.571">
	<g>
		<polygon fill="#4D5B5B" points="-1.542,16.443 -21.04,16.443 -21.04,35.942 -1.542,35.942 		"/>
	</g>
	<g>
		<polygon fill="#CE3E2F" points="48.999,16.444 39.248,16.444 39.248,35.942 48.999,35.942 		"/>
	</g>
	<g>
		<polygon fill="#CE3E2F" points="-11.785,-11.615 -17.414,-1.865 -11.785,7.884 -0.527,7.884 5.103,-1.865 -0.527,-11.615 		"/>
	</g>
	<g>
		<polygon fill="#5F585A" points="30.081,35.943 18.824,16.443 7.565,35.943 		"/>
	</g>
	<g opacity="0.26">
		<path fill="#5F585A" d="M31.241,46.469c0-3.048-2.47-5.518-5.52-5.518H11.926c-3.048,0-5.519,2.47-5.519,5.518v13.798
			c0,3.047,2.471,5.519,5.519,5.519h13.795c3.049,0,5.52-2.472,5.52-5.519V46.469z"/>
	</g>
	<g>
		<polygon fill="#CE3E2F" points="12.956,61.76 27.49,53.37 12.956,44.976 		"/>
	</g>
	<g>
		<path fill="#2A2A2B" d="M28.459-1.864c0,5.321-4.313,9.634-9.635,9.634c-5.322,0-9.636-4.312-9.636-9.634
			c0-5.322,4.314-9.636,9.636-9.636C24.146-11.5,28.459-7.186,28.459-1.864z"/>
	</g>
	<g>
		<path fill="#4D5B5B" d="M45.273-7.958c0-2.02-1.637-3.656-3.656-3.656H39.18c-2.019,0-3.655,1.637-3.655,3.656V4.229
			c0,2.018,1.636,3.655,3.655,3.655h2.437c2.019,0,3.656-1.638,3.656-3.655V-7.958z"/>
	</g>
	<g>
		<g>
			<path fill="#2A2A2B" d="M56.497-21.509h-78.674l-19.499,63.076h-23.817c-2.241,0-4.059,1.817-4.059,4.059
				c0,2.242,1.818,4.06,4.059,4.06h29.805l19.499-63.076h66.312L61.55,33.473c0.531,2.179,2.726,3.518,4.905,2.982
				c2.178-0.531,3.513-2.728,2.981-4.905L56.497-21.509z"/>
		</g>
		<g>
			<path fill="#2A2A2B" d="M-12.712-65.786c-6.88,0-12.478,5.597-12.478,12.476c0,6.88,5.598,12.477,12.478,12.477
				c6.879,0,12.477-5.597,12.477-12.477C-0.236-60.189-5.833-65.786-12.712-65.786z M-12.712-46.516
				c-3.747,0-6.795-3.048-6.795-6.794s3.048-6.793,6.795-6.793s6.794,3.047,6.794,6.793S-8.966-46.516-12.712-46.516z"/>
		</g>
		<g>
			<path fill="#2A2A2B" d="M39.249-65.786c-6.879,0-12.477,5.597-12.477,12.476c0,6.88,5.597,12.477,12.477,12.477
				c6.88,0,12.477-5.597,12.477-12.477C51.726-60.189,46.129-65.786,39.249-65.786z M39.249-46.516
				c-3.746,0-6.794-3.048-6.794-6.794s3.048-6.793,6.794-6.793c3.746,0,6.794,3.047,6.794,6.793S42.995-46.516,39.249-46.516z"/>
		</g>
		<g>
			<path fill="#2A2A2B" d="M54.933-38.947h-75.195c-5.241,0-13.038,3.403-13.038,12.778s7.361,12.777,12.309,12.777
				c2.241,0,4.059-1.817,4.059-4.06c0-2.241-1.818-4.059-4.059-4.059c-1.883-0.054-4.19-0.907-4.19-4.659
				c0-3.965,3.107-4.622,4.96-4.66h75.155c2.241,0,4.059-1.817,4.059-4.06C58.992-37.129,57.174-38.947,54.933-38.947z"/>
		</g>
	</g>
	<g>
		<path fill="#2A2A2B" d="M-21.04,49.505c0,2.133,4.314,3.862,9.633,3.862c5.321,0,9.634-1.729,9.634-3.862
			c0-2.132-4.312-3.861-9.634-3.861C-16.726,45.644-21.04,47.374-21.04,49.505z"/>
	</g>
</symbol>
<symbol  id="ArdyMarket_Logo_txt" viewBox="-371.013 -85.054 742.027 170.107">
	<path fill-rule="evenodd" clip-rule="evenodd" fill="#2A2A2B" d="M-291.602,8.02c3.412-0.443,8.975,1.473,9.267,0.265
		c-0.542-5.396-7.169-10.036-11.647-13.962c-2.007-12.868-4.018-31.392,1.191-42.085c0.807-1.657,2.291-2.631,2.579-4.369
		c-5.672-1.476-11.206-4.146-16.874-4.962c-1.589,1.154-1.984,3.581-2.381,5.559c-3.213,16.006,0.571,34.317,2.777,49.034
		c-11.416,2.064-19.64,2.535-28.251,1.808c-3.925-10.233-5.871-24.36-10.062-35.556c-1.257-3.359-3.071-7.461-5.757-9.133
		c-4.927-3.066-13.071-3.113-20.251-3.97c-0.062,0.843,0.74,1.564,1.192,2.184c8.515,11.639,13.936,29.479,19.295,44.371
		c-4.136-0.71-6.049-1.319-9.171-1.89c-2.462-0.445-6.84-1.584-7.741,0.597c-1.239,2.999,3.363,5.188,4.274,5.77
		c2.518,1.604,8.546,4.007,10.805,4.812c1.213,0.433,4.369,1.146,5.166,1.948c1,1.004,1.509,2.792,2.188,4.741
		c7.655,22.017,15.024,44.622,29.58,59.953c4.827,5.085,11.505,11.639,21.439,11.911c6.025,0.166,11.313-2.363,12.109-7.941
		c0.794-5.572-0.661-12.306-1.589-18.064C-286.171,42.215-289.487,24.328-291.602,8.02z M-293.982,59.04
		c0.73,3.506,3.952,14.272,0.396,16.477c-1.662,1.03-4.451-0.093-5.758-0.794c-10.065-5.411-15.516-16.212-20.445-27.991
		c-4.957-11.832-9.153-24.755-12.321-36.262c9.765,0.627,18.171,0.339,27.557-0.73C-301.215,25.991-297.422,42.58-293.982,59.04z"/>
	<path fill-rule="evenodd" clip-rule="evenodd" fill="#2A2A2B" d="M8.959,0.676c1.87,2.855,2.938,6.44,4.367,9.924
		C21.479,30.487,30.5,50.043,39.729,69.164c2.626,5.443,3.9,9.962,9.131,12.508c3.813,1.852,12.408,3.792,14.097-0.199
		c1.243-2.941-0.521-10.584-1.191-14.493c-2.335-13.572-5.509-26.553-8.538-39.703c-2.041-8.866-3.762-17.78-5.557-26.601
		c-1.82-8.942-4.099-18.91-3.573-28.39c0.477-8.618,3.052-17.378,12.506-17.073c-5.269-6.037-20.378-6.725-25.211-0.197
		c-4.286,5.786-2.658,14.368-1.191,22.631c5.147,29.009,14.585,58.694,20.247,86.356c-1.136-0.452-1.125-2.05-2.381-2.383
		C37.722,38.831,25.444,18.182,17.493-7.464c-1.145-3.693-2.715-7.533-2.779-11.316c-0.022-1.483,0.769-3.333,0.398-4.764
		c-0.482-1.858-7.77-6.996-12.308-4.964c-4.478,2.003-5.618,13.706-6.155,19.654c-1.92,21.262,1.968,40.232,3.177,60.15
		c0.24,3.97,0.702,8.066-0.397,11.912C-4.162,54.77-5.994,45.493-8.313,36.21c-4.7-18.823-8.84-36.373-13.301-56.182
		c-2.119-9.416-3.933-19.354-9.132-25.41c-1.13-1.315-2.773-2.73-4.367-3.374c-8.575-3.471-17.015,1.384-19.852,7.145
		c-3.722,7.562-3.58,22.801-0.396,32.955c2.216,7.075,5.653,12.987,9.924,18.662c1.447,1.922,3.438,4.781,4.765,4.764
		c0.942-0.011,2.881-1.684,3.178-2.779c0.737-2.728-2.208-6.366-3.178-8.337c-1.41-2.872-2.798-5.993-3.573-8.34
		c-2.409-7.278-4.811-18.29-2.183-27.592c0.534-1.893,1.631-5.206,2.978-5.361c1.6-0.182,3.292,3.594,4.168,5.559
		c6.946,15.547,9.504,35.903,13.897,53.601c5.191,20.916,12.084,39.176,19.255,57.77c2.925,2.041,7.711,4.45,12.31,4.764
		c1.481,0.103,2.618,0.111,3.375-0.595c1.198-1.116,1.073-7.263,1.191-9.927c0.471-10.694,0.395-22.062-0.398-31.763
		C9.799,35.053,8.941,28.343,8.561,21.52C8.184,14.732,7.494,6.36,8.959,0.676z"/>
	<path fill-rule="evenodd" clip-rule="evenodd" fill="#2A2A2B" d="M-106.185,30.056c2.47,2.882,13.562,6.471,15.486,0.595
		c1.474-4.501-1.342-11.112-2.582-14.888c-8.866-26.98-14.243-56.188-20.646-86.554c-0.922-4.373-1.483-12.342-4.168-13.699
		c-4.179-2.113-10.2,2.154-10.721,5.559c-0.368,2.398,0.992,5.37,1.787,8.141c5.15,17.954,9.489,36.722,14.094,54.594
		c-2.163-0.997-3.721-3.271-5.757-5.163c-3.147-2.925-7.028-5.941-13.697-5.359c-8.912,0.775-13.332,6.835-14.094,16.277
		c-1.807-0.553-3.286-2.627-4.965-4.17c-1.537-1.41-3.03-3.163-4.765-4.565c-3.405-2.753-7.918-6.344-11.91-6.946
		c-8.613-1.304-12.404,6.017-12.507,14.094c-5.613-3.607-12.939-12.445-22.631-12.506c-8.143-0.054-11.598,6.528-12.514,14.737
		c-0.417-0.438-1.879-2.131-2.574-2.826c-2.33-2.33-4.727-4.96-7.345-7.347c-3.266-2.973-7.838-6.39-12.31-7.344
		c-10.808-2.308-19.229,6.571-15.881,17.27c1.403,4.485,4.454,8.579,6.749,12.706c2.266,4.073,6.225,9.655,5.1,13.749
		c-0.531,1.562-3.469,0.062-6.625,0.781c-1.681,0.383-4.142,0.96-5.622,0.557c-1.277-0.349-2.721-3.595-3.771-5.36
		c-5.643-9.484-11.176-18.982-16.888-28.353c-2.089-3.43-5.334-9.292-9.317-8.373c-1.787,0.852-0.558,4.435,0.397,6.353
		c5.687,11.414,11.326,22.326,17.271,34.346c0.736,1.486,2.78,4.658,2.78,5.756c-0.003,1.735-3.006,2.211-2.384,5.359
		c1.603,8.11,6.977,16.416,10.919,17.471c9.755,2.607,12.208-9.786,7.545-17.271c1.788-2.546,8.401,0.15,11.911-1.191
		c4.675-1.787,7.519-10.025,5.316-16.205c-1.75-4.912-5.335-10.264-9.01-14.841c-2.385-2.971-7.578-7.868-5.847-12.319
		c0.698-1.396,4.729-1.302,4.729-1.302c7.592,0.74,11.25,2.719,16.375,7.156c1.539,1.333,3.977,3.594,5.438,5.25
		c1.39,1.574,2.587,2.622,2.938,4.438c0.688,3.562,1.495,6.81,2.097,8.765c1.837,5.988,4.111,10.887,7.941,15.685
		c4.737,5.938,10.467,11.668,19.057,12.506c8.938,0.873,10.542-5.215,14.293-10.323c3.235,14.434,7.424,30.73,11.514,45.263
		c0.591,2.097,1.166,4.707,1.985,5.956c1.385,2.107,7.507,4.543,10.919,2.779c4.459-2.307,2.598-15.994,1.788-21.44
		c-2.152-14.441-7.695-26.118-13.104-37.321c-2.796-5.793-6.824-10.652-9.13-16.08c-1.047-2.46-1.558-6.79-1.987-10.521
		c-0.541-4.716-0.584-10.15,3.376-10.521c4.757-0.446,10.07,5.502,12.705,8.139c1.957,1.956,3.541,3.506,5.162,5.161
		c1.634,1.667,4.042,3.633,4.963,5.955c1.409,3.553,2.031,7.409,3.374,11.713c1.227,3.926,3.182,8.712,2.978,11.912
		c-0.089,1.406-1.672,2.641-1.39,3.968c0.377,1.776,7.04,3.37,10.323,2.979c2.367-0.281,4.099-1.454,4.565-2.78
		c1.016-2.873-0.585-8.19-1.39-10.916c-1.063-3.613-2.226-6.112-3.374-9.332c-2.164-6.063-5.585-13.312-4.764-20.646
		c0.283-2.539,1.956-5.518,4.764-5.755c3.566-0.303,7.501,4.142,9.729,6.946c5.184,6.529,9.092,12.887,12.309,21.043
		C-105.224,16.744-102.828,25.304-106.185,30.056z M-188.171,28.27c-4.12-1.899-8.379-7.5-11.118-12.707
		c-3.022-5.738-5.9-11.361-6.354-17.666c-0.299-4.19,0.32-7.316,1.788-9.729c4.448-7.319,12.62,0.132,16.873,4.169
		c5.65,5.362,10.652,9.878,11.117,19.653c-0.607,0.715-2.371,0.276-2.779,1.191C-179.068,19.706-180.044,32.017-188.171,28.27z"/>
	<path fill-rule="evenodd" clip-rule="evenodd" fill="#2A2A2B" d="M204.288,19.49c-0.785-2.695,5.555,4.456,7.264,5.996
		c1.617,1.459,4.164,3.802,7.266,5.726c5.066,3.139,14.869,7.146,18.24,0.036c1.209-2.557,1.418-6.755,0.793-9.53
		c-1.424-6.336-8.389-11.432-12.902-14.688c1.705-2.051,2.578-2.138,3.373-3.774c3.045-6.245-3.771-13.633-0.992-19.452
		c6.17-4.331,17.139,2.354,24,6.176c1.438,0.801-0.809,3.847,0.258,11.921c0.59,4.47,1.662,8.019,3.635,11.794
		c1.787,3.417,4.178,7.234,6.84,10.34c5.129,5.979,13.465,14.082,24.428,13.17c6.605-0.55,9.824-6.218,7.742-13.698
		c-1.85-6.638-6.715-11.547-11.254-16.721c-3.18-3.625-6.654-6.422-10.844-9.97c-1.514-1.283-6.178-4.797-7.734-5.931
		c0,0,1.225-2.975,4.223-5.496c3.291-2.769,10.879-3.546,16.516-1.337c16.861,6.608,27.408,23.063,27.408,23.063
		c0.402,1.971,1.908,9.515,2.475,12.545c1.721,9.23,4.455,19.084,6.662,28.762c-3.314-0.27-0.572-0.108-5.615-0.087
		c-3.748,0.016-11.219-0.145-11.803,2.535c-0.588,2.702,4.984,8.978,7.422,9.103c0.25-2.812,4.67-2.801,12.107-2.448
		c1.045,3.155,1.959,6.865,3.191,10.45c1.215,3.527,2.566,8.138,4.965,9.727c4.027,2.667,7.834,1.897,9.727,0.198
		c2.635-2.364,2.105-5.841,1.801-8.197c-0.441-3.411-2.121-8.329-2.646-11.047c13.5,1.247,24.504-0.058,28.209-4.1
		c1.564-1.904,2.922-3.521,1.104-15.188c0.869,13.834-21.516,11.096-31.369,10.109c-4.393-15.466-11.965-32.504-15.773-39.288
		c-3.02-5.379-4.674-12.231-2.963-19.639c0.791-3.419,3.676-7.947,7.953-7.959c20.57-0.057,29.287,27.796,31.07,26.943
		c2.152-1.027-7.75-28.5-30.557-35.385c-12.58-3.798-17.777,9.968-17.043,22.175c-2.207-2.792-5.951-5.719-8.625-8.209
		c-2.461-2.288-5.377-4.455-8.252-6.284c-5.885-3.744-10.418-6.497-17.264-7.866c-9.916-1.983-16.555,0.301-22.762,10.388
		c-2.342-1.566-1.203-0.727-2.395-1.432c-5.867-3.472-19.895-11.865-29.6-10.236c-4.174,0.698-6.721,4.406-7.146,8.932
		c-0.576,6.125,4.559,16.251,2.58,17.669c-1.521,1.082-4.701-2.994-8.535-2.384c-4.537,0.727-5.211,9.52-0.398,11.716
		c2.652,1.207,6.145,0.065,8.537,0.593c2.043,0.452,4.377,3.271,5.559,4.566c2.033,2.23,3.609,4.586,3.375,6.751
		c-0.443,4.091-5.424,3.804-8.279,2.198c-4.814-2.709-7.805-5.677-11.227-9.078c-2.076-2.065-5.443-5.763-5.986-6.357
		c-0.502-2.312-1.801-8.571-2.301-10.783c-1.281-5.668-2.209-11.613-3.574-17.67c-0.734-3.266-1.338-4.105-5.357-4.367
		c-1.062-0.068-3.748-0.108-4.566,0.795c-1.584,1.744,0.021,6.019,0.596,8.141c0.805,2.973,2.297,7.776,2.658,9.992
		c-1.643-1.878-5.17-5.382-6.926-7.121c-1.783-1.765-5.209-4.737-7.02-6.274c-4.928-4.181-8.623-6.661-15.139-7.835
		c-8.604-1.55-13.73,6.797-11.295,16.994c1.041,4.352,4.418,9.58,6.75,13.697c1.16,2.048,2.561,3.923,3.771,6.552
		c0.941,2.042,2.541,6.177,0.596,7.542c-0.988,0.696-4.277,0.52-5.758,0.597c-1.342,0.071-4.742,0.57-5.359,0.396
		c-1.363-0.382-2.91-3.451-3.971-5.16c-3.596-5.808-8.471-13.31-11.838-19.001c-3.027-5.115-6.5-9.75-14.001-14.5
		c-3.654-2.43-12.052-5.428-17.042-3.225c-3.972,1.751-4.193,6.667-5.16,11.514c-3.147-2.231-5.873-6.052-10.125-8.537
		c-4.08-2.386-12.515-5.794-17.867-3.176c-1.971,0.963-3.559,3.261-4.367,5.162C57.68-4.701,67.988,14.42,75.065,23.108
		c4.381,5.378,10.039,11.243,17.47,13.698c8.891,2.937,16.9-2.647,10.942-12.439c-3.5-4.208,6.625,7.208,7.718-0.067
		c-0.755-9.562-3.267-18.672-5.36-28.19c-0.908-4.134-1.625-11.805,2.581-12.508c3.849-0.642,9.555,3.021,11.729,5.432
		c3.833,4.25,5.255,7.048,7.251,10.5c3.082,5.334,4.172,8.373,8.5,16.834c0.867,1.698,2.17,4.214,2.102,5.748
		c-0.066,1.473-1.736,2.582-1.986,3.971c-0.914,5.057,1.721,9.424,3.971,12.705c2.432,3.544,5.906,8.35,11.91,5.956
		c5.35-2.133,5.184-11.217,2.779-17.272c3.516-2.296,8.301,0.63,11.912-0.992c4.223-1.896,6.766-9.57,5.361-15.484
		c-1.004-4.217-4.133-7.618-6.355-11.116c-2.303-3.631-5.471-7.218-6.352-11.117c-1.32-5.854,3.512-7.89,8.141-5.56
		c8.268,4.162,13.367,9.99,19.83,16.659c2.119,2.188,4.096,4.477,4.096,4.477c1.076,4.302,3.57,14.307,4.787,19.583
		c2.465,10.667,4.252,17.308,6.346,30.36c1.572,9.813,2.25,19.75,2.742,22.402c2.633,7.348,13.592,5.068,15.402,0.616
		c0.768-1.89-0.096-5.642-0.596-8.139c-2.527-12.601-6.424-23.755-10.422-34.685C207.909,29.956,206.013,24.77,204.288,19.49z
		 M277.411,11.363c2.604,2.756,4.809,6.325,6.242,9.5c1.377,3.046,0.639,5.625-0.914,7.046c-2.215,2.027-5.721-0.6-7.17-1.823
		c-5.08-4.297-14.037-15.386-12.912-28.274C265.886,0.058,273.476,7.2,277.411,11.363z M90.152,25.887
		C84.397,21.033,77.99,10.145,76.057-0.516c-0.638-3.528-1.184-10.107,0.597-11.911c3.232-3.275,9.703,1.265,11.91,3.176
		c2.739,2.372,4.898,4.738,6.354,7.544c3.449,6.646,4.379,15.25,5.644,23.24c-2.034-1.288-7.917-9.891-8.75-7.499
		c0.532,2.049,5.562,12.25,3.701,13.242C93.444,28.277,91.459,26.989,90.152,25.887z"/>
</symbol>
<rect y="0" fill="none" width="189.662" height="189.662"/>
<circle display="none" fill="none" stroke="#2A2A2B" stroke-miterlimit="10" cx="94.831" cy="94.832" r="94.831"/>
<use xlink:href="#ArdyCart1"  width="139.106" height="131.571" x="-69.553" y="-65.786" transform="matrix(1 0 0 -1 94.8311 94.8311)" overflow="visible"/>
</svg>
