<?xml version="1.0" encoding="utf-8"?>
<!-- Generator: Adobe Illustrator 15.0.0, SVG Export Plug-In . SVG Version: 6.00 Build 0)  -->
<!DOCTYPE svg PUBLIC "-//W3C//DTD SVG 1.1//EN" "http://www.w3.org/Graphics/SVG/1.1/DTD/svg11.dtd">
<svg version="1.1" id="Layer_1" xmlns="http://www.w3.org/2000/svg" xmlns:xlink="http://www.w3.org/1999/xlink" x="0px" y="0px"
	 width="189.662px" height="189.662px" viewBox="0 0 189.662 189.662" enable-background="new 0 0 189.662 189.662"
	 xml:space="preserve">
<circle display="none" fill="none" stroke="#2A2A2B" stroke-miterlimit="10" cx="94.831" cy="94.832" r="94.831"/>
<g>
	<path fill="#808285" d="M122.478,179.019H67.185c-31.172,0-56.533-25.365-56.533-56.543V67.177
		c0-31.172,25.361-56.533,56.533-56.533h55.293c31.173,0,56.533,25.361,56.533,56.533v55.299
		C179.012,153.653,153.65,179.019,122.478,179.019z M67.187,13.117c-29.81,0-54.062,24.253-54.062,54.061v55.298
		c0,29.815,24.252,54.07,54.062,54.07h55.291c29.811,0,54.062-24.255,54.062-54.07V67.177c0-29.808-24.252-54.061-54.062-54.061
		L67.187,13.117L67.187,13.117z"/>
</g>
<g>
	<g>
		<path fill="#010101" d="M57.948,109.12h-2.834c-2.733,0-4.948-5.418-4.948-12.1c0-6.685,2.215-12.101,4.948-12.101h2.834
			c2.731,0,4.947,5.416,4.947,12.101C62.895,103.702,60.68,109.12,57.948,109.12z"/>
	</g>
	<g>
		<path fill="#010101" d="M75.922,110.37h-2.836c-2.73,0-4.945-7.276-4.945-16.25c0-8.974,2.215-16.25,4.945-16.25h2.836
			c2.73,0,4.946,7.276,4.946,16.25C80.869,103.094,78.653,110.37,75.922,110.37z"/>
	</g>
	<g>
		<path fill="#010101" d="M116.577,118.37h-2.836c-2.73,0-4.945-7.836-4.945-17.5c0-9.667,2.215-17.5,4.945-17.5h2.836
			c2.732,0,4.947,7.833,4.947,17.5C121.524,110.533,119.312,118.37,116.577,118.37z"/>
	</g>
	<g>
		<path fill="#010101" d="M134.55,106.12h-2.836c-2.73,0-4.945-7.725-4.945-17.25s2.215-17.25,4.945-17.25h2.836
			c2.732,0,4.947,7.725,4.947,17.25S137.282,106.12,134.55,106.12z"/>
	</g>
	<g opacity="0.9" enable-background="new    ">
		<path fill="#2E3192" d="M132.034,53.88c-0.703,0-1.422-0.101-2.133-0.315c-23.271-6.981-46.87-6.981-70.139,0
			c-3.947,1.186-8.064-1.054-9.24-4.975c-1.177-3.924,1.049-8.061,4.976-9.238c26.101-7.829,52.568-7.829,78.667,0
			c3.926,1.178,6.152,5.314,4.975,9.238C138.175,51.803,135.228,53.88,132.034,53.88z"/>
	</g>
	<g opacity="0.9" enable-background="new    ">
		<path fill="#2E3192" d="M94.832,156.188c-13.142,0-26.284-1.959-39.333-5.875c-3.926-1.176-6.152-5.312-4.975-9.237
			c1.177-3.927,5.303-6.159,9.239-4.974c23.269,6.979,46.867,6.979,70.138,0c3.938-1.195,8.062,1.051,9.238,4.974
			c1.18,3.925-1.049,8.062-4.975,9.237C121.116,154.229,107.976,156.188,94.832,156.188z"/>
	</g>
	<g>
		<path fill="#010101" d="M94.832,87.395c4.111,0,7.439,3.327,7.439,7.439c0,4.108-3.328,7.438-7.439,7.438
			c-4.111,0-7.438-3.33-7.438-7.438C87.393,90.722,90.72,87.395,94.832,87.395z"/>
		<path fill="#ED1C24" d="M94.832,104.746c-5.468,0-9.913-4.446-9.913-9.911c0-5.467,4.445-9.914,9.913-9.914
			c5.466,0,9.912,4.447,9.912,9.914C104.743,100.299,100.298,104.746,94.832,104.746z M94.832,89.867
			c-2.738,0-4.968,2.228-4.968,4.968c0,2.738,2.229,4.965,4.968,4.965c2.74,0,4.966-2.227,4.966-4.965
			C99.798,92.094,97.571,89.867,94.832,89.867z"/>
	</g>
</g>
</svg>
