<?xml version="1.0" encoding="utf-8"?>
<!-- Generator: Adobe Illustrator 15.0.0, SVG Export Plug-In . SVG Version: 6.00 Build 0)  -->
<!DOCTYPE svg PUBLIC "-//W3C//DTD SVG 1.1//EN" "http://www.w3.org/Graphics/SVG/1.1/DTD/svg11.dtd">
<svg version="1.1" id="Layer_1" xmlns="http://www.w3.org/2000/svg" xmlns:xlink="http://www.w3.org/1999/xlink" x="0px" y="0px"
	 width="189.662px" height="189.662px" viewBox="0 0 189.662 189.662" enable-background="new 0 0 189.662 189.662"
	 xml:space="preserve">
<circle display="none" fill="none" stroke="#2A2A2B" stroke-miterlimit="10" cx="94.831" cy="94.832" r="94.831"/>
<g>
	<path fill="#FFFFFF" stroke="#6D6E71" stroke-width="3" stroke-miterlimit="10" d="M122.478,179.019H67.185
		c-31.173,0-56.534-25.365-56.534-56.543V67.177c0-31.172,25.361-56.533,56.534-56.533h55.292c31.172,0,56.535,25.361,56.535,56.533
		v55.299C179.011,153.653,153.649,179.019,122.478,179.019z"/>
</g>
<g>
	<g>
		<path fill="#010101" d="M57.938,99.781h-2.835c-2.733,0-4.948-2.216-4.948-4.946c0-2.732,2.215-4.946,4.948-4.946h2.835
			c2.731,0,4.946,2.214,4.946,4.946C62.885,97.565,60.67,99.781,57.938,99.781z"/>
	</g>
	<g>
		<path fill="#010101" d="M75.912,99.783h-2.836c-2.731,0-4.946-2.216-4.946-4.946c0-2.731,2.215-4.946,4.946-4.946h2.836
			c2.731,0,4.946,2.215,4.946,4.946C80.858,97.567,78.644,99.783,75.912,99.783z"/>
	</g>
	<g>
		<path fill="#010101" d="M116.565,99.781h-2.834c-2.731,0-4.946-2.216-4.946-4.946c0-2.732,2.215-4.946,4.946-4.946h2.834
			c2.733,0,4.949,2.214,4.949,4.946C121.515,97.565,119.299,99.781,116.565,99.781z"/>
	</g>
	<g>
		<path fill="#010101" d="M134.54,99.783h-2.836c-2.73,0-4.946-2.216-4.946-4.946c0-2.731,2.216-4.946,4.946-4.946h2.836
			c2.73,0,4.945,2.215,4.945,4.946C139.485,97.567,137.271,99.783,134.54,99.783z"/>
	</g>
	<g opacity="0.9" enable-background="new    ">
		<path fill="#2E3192" d="M132.024,53.88c-0.705,0-1.422-0.101-2.133-0.315c-23.271-6.981-46.87-6.981-70.139,0
			c-3.947,1.186-8.065-1.054-9.24-4.975c-1.177-3.924,1.049-8.061,4.975-9.238c26.1-7.829,52.568-7.829,78.667,0
			c3.926,1.178,6.152,5.314,4.974,9.238C138.165,51.803,135.216,53.88,132.024,53.88z"/>
	</g>
	<g opacity="0.9" enable-background="new    ">
		<path fill="#2E3192" d="M94.821,156.188c-13.142,0-26.284-1.959-39.333-5.875c-3.925-1.176-6.152-5.312-4.975-9.237
			c1.177-3.927,5.303-6.159,9.24-4.974c23.269,6.979,46.867,6.979,70.139,0c3.937-1.195,8.062,1.051,9.237,4.974
			c1.179,3.925-1.048,8.062-4.974,9.237C121.104,154.229,107.964,156.188,94.821,156.188z"/>
	</g>
	<g>
		<path fill="#010101" d="M94.821,87.395c4.112,0,7.439,3.327,7.439,7.439c0,4.108-3.327,7.438-7.439,7.438
			c-4.111,0-7.439-3.33-7.439-7.438C87.382,90.722,90.71,87.395,94.821,87.395z"/>
		<path fill="#ED1C24" d="M94.821,104.746c-5.466,0-9.913-4.446-9.913-9.911c0-5.467,4.446-9.914,9.913-9.914
			c5.466,0,9.913,4.447,9.913,9.914C104.733,100.299,100.287,104.746,94.821,104.746z M94.821,89.867
			c-2.739,0-4.966,2.228-4.966,4.968c0,2.738,2.228,4.965,4.966,4.965c2.739,0,4.966-2.227,4.966-4.965
			C99.787,92.094,97.562,89.867,94.821,89.867z"/>
	</g>
</g>
</svg>
