<?xml version="1.0" encoding="utf-8"?>
<!-- Generator: Adobe Illustrator 15.0.0, SVG Export Plug-In . SVG Version: 6.00 Build 0)  -->
<!DOCTYPE svg PUBLIC "-//W3C//DTD SVG 1.1//EN" "http://www.w3.org/Graphics/SVG/1.1/DTD/svg11.dtd">
<svg version="1.1" id="Layer_1" xmlns="http://www.w3.org/2000/svg" xmlns:xlink="http://www.w3.org/1999/xlink" x="0px" y="0px"
	 width="189.662px" height="189.662px" viewBox="0 0 189.662 189.662" enable-background="new 0 0 189.662 189.662"
	 xml:space="preserve">
<g>
	<path fill="#EE4036" stroke="#3B56A6" stroke-miterlimit="10" d="M36.99,90.272c0.199-1.017,0.559-2.103,1.031-3.117
		c0.242-0.508,0.547-0.977,0.906-1.562c0.098-0.141,0.227-0.461,0.27-0.516c0.117-0.148,1.148-1.211,1.422-1.43
		c0.297-0.242,0.762-0.398,1.168-0.656c0.16-0.086,67.773-38.984,72.79-41.07c0.469,0.016,6.27-0.812,11.956,2.867
		c4.669,3.938,5.599,7.836,5.716,9.484c0,1.625,0.129,60.586,0.129,72.391c0,3.25,0.262,6.781-0.396,9.359
		c-0.155,0.664-0.367,1.078-0.645,1.688c-0.043,0.109-0.062,0.25-0.129,0.392c-0.177,0.352-0.595,1.172-0.91,1.694
		c-0.246,0.384-0.621,0.767-0.91,1.164c-0.277,0.392-0.496,0.836-0.777,1.172c-0.422,0.492-1.022,1.062-1.555,1.556
		c-0.082,0.069-0.191,0.203-0.262,0.258c-0.246,0.188-0.595,0.398-0.91,0.648c-0.098,0.077-0.176,0.194-0.258,0.266
		c-0.23,0.172-0.582,0.414-0.906,0.647c-0.133,0.087-0.297,0.031-0.398,0.134c-0.043,0.039-0.082,0.233-0.133,0.258
		c-0.18,0.108-0.535,0.141-0.776,0.266c-0.449,0.234-1.22,0.797-1.812,1.039c-0.484,0.195-1.051,0.25-1.566,0.383
		c-1.784,0.478-4.483,0.742-6.495,0c-0.195-0.055-70.431-40.5-70.836-40.805c-1.027-0.781-2.195-2.055-2.988-3.25
		c-0.281-0.43-0.435-0.647-0.646-1.164c-0.185-0.438-0.53-0.969-0.785-1.57C37.189,98.226,36.244,94.03,36.99,90.272z"/>
	<path fill="#EE4036" d="M152.672,99.39c-0.199,1.017-0.559,2.103-1.031,3.117c-0.242,0.508-0.547,0.977-0.906,1.562
		c-0.098,0.141-0.227,0.461-0.27,0.516c-0.117,0.148-1.148,1.211-1.422,1.43c-0.297,0.242-0.762,0.398-1.168,0.656
		c-0.16,0.086-71.002,41.14-72.791,41.07c-0.469-0.016-6.27,0.812-11.956-2.867c-4.669-3.938-5.599-7.836-5.716-9.484
		c0-1.625-0.129-60.586-0.129-72.391c0-3.25-0.262-6.781,0.396-9.359c0.155-0.664,0.367-1.078,0.645-1.688
		c0.043-0.109,0.062-0.25,0.129-0.392c0.177-0.352,0.595-1.172,0.91-1.694c0.246-0.384,0.621-0.767,0.91-1.164
		c0.277-0.392,0.496-0.836,0.777-1.172c0.422-0.492,1.022-1.062,1.555-1.556c0.082-0.069,0.191-0.203,0.262-0.258
		c0.246-0.188,0.595-0.398,0.91-0.648c0.098-0.077,0.176-0.194,0.258-0.266c0.23-0.172,0.582-0.414,0.906-0.647
		c0.133-0.087,0.297-0.031,0.398-0.134c0.043-0.039,0.082-0.233,0.133-0.258c0.18-0.108,0.535-0.141,0.776-0.266
		c0.449-0.234,1.22-0.797,1.812-1.039c0.484-0.195,1.051-0.25,1.566-0.383c1.784-0.478,4.483-0.742,6.495,0
		c0.195,0.055,70.431,40.5,70.836,40.805c1.027,0.781,2.195,2.055,2.988,3.25c0.281,0.43,0.435,0.646,0.646,1.164
		c0.185,0.438,0.53,0.969,0.785,1.57C152.473,91.436,153.418,95.631,152.672,99.39z"/>
</g>
<circle display="none" fill="none" stroke="#2A2A2B" stroke-miterlimit="10" cx="94.831" cy="94.832" r="94.831"/>
<g>
	<path fill="#FFFFFF" d="M89.635,116.023c0,2.892-2.659,5.235-5.941,5.235l0,0c-3.278,0-5.939-2.344-5.939-5.235V72.7
		c0-2.896,2.662-5.24,5.939-5.24l0,0c3.282,0,5.941,2.344,5.941,5.24V116.023z"/>
	<path fill="#FFFFFF" d="M111.907,116.966c0,2.893-2.656,5.236-5.938,5.236l0,0c-3.278,0-5.94-2.344-5.94-5.236V73.639
		c0-2.892,2.662-5.235,5.94-5.235l0,0c3.282,0,5.938,2.343,5.938,5.235V116.966z"/>
</g>
</svg>
