<?xml version="1.0" encoding="utf-8"?>
<!-- Generator: Adobe Illustrator 15.0.0, SVG Export Plug-In . SVG Version: 6.00 Build 0)  -->
<!DOCTYPE svg PUBLIC "-//W3C//DTD SVG 1.1//EN" "http://www.w3.org/Graphics/SVG/1.1/DTD/svg11.dtd">
<svg version="1.1" id="Layer_1" xmlns="http://www.w3.org/2000/svg" xmlns:xlink="http://www.w3.org/1999/xlink" x="0px" y="0px"
	 width="189.662px" height="189.662px" viewBox="0 0 189.662 189.662" enable-background="new 0 0 189.662 189.662"
	 xml:space="preserve">
<circle display="none" fill="none" stroke="#2A2A2B" stroke-miterlimit="10" cx="94.831" cy="94.832" r="94.831"/>
<g>
	<path fill="#EE4036" d="M44.983,62.103c0.07,0.289,0.07,1.609,0.062,1.977c-0.009,0.75-0.129,1.484,0.108,2.156
		c-0.043,0.438-0.289,0.914,0.052,1.227c0.202,4.453-0.384,62.788-0.095,66.702c0.109,1.516,0.609,3.062,1.039,4.039
		c0.109,0.242,0.152,0.547,0.263,0.773c0.461,0.969,1.022,1.836,1.551,2.602c0.871,1.258,1.828,2.414,2.867,3.375
		c0.573,0.547,1.141,1,1.684,1.43c0.152,0.133,1.271,1,1.301,1.039c0.052,0.047,2.871,1.469,4.027,1.953
		c2.234,0.93,5.719,1.164,8.199,0.516c0.711-0.188,1.387-0.555,2.073-0.914c1.25-0.625,2.513-1.352,3.767-2.078
		c0.922-0.522,1.91-1.094,2.729-1.547c0.355-0.203,1.017-0.516,1.168-0.655c0.22-0.212,1.371-0.867,1.691-1.048
		c0.652-0.358,1.348-0.625,1.82-1.155c0.391-0.172,0.914-0.203,1.039-0.656c3.647-2.547,54.652-31.853,57.8-34.188
		c1.227-0.905,2.262-2.155,2.859-3.03c0.137-0.22,0.383-0.431,0.508-0.634c0.586-0.905,1.008-1.852,1.379-2.702
		c0.602-1.398,1.066-2.836,1.328-4.228c0.152-0.772,0.23-1.5,0.312-2.187c0.02-0.203-0.082-0.484-0.059-0.578
		c0.008-0.055,0.219-0.094,0.219-0.141c0.012-0.234-0.199-0.539-0.199-0.797c0-0.055,0.211-0.094,0.219-0.141
		c0.016-0.062-0.137-0.164-0.129-0.219c0.055-1.281-0.16-2.992-0.363-4.227c-0.414-2.391-2.07-5.461-3.934-7.203
		c-0.551-0.508-1.219-0.875-1.871-1.273c-1.223-0.727-2.496-1.398-3.777-2.07c-0.949-0.508-1.949-1.039-2.777-1.484
		c-0.363-0.203-0.965-0.602-1.176-0.648c-0.289-0.062-0.559-0.156-0.785-0.266c-0.324-0.172-0.672-0.422-0.992-0.603
		c-0.65-0.367-1.254-0.812-1.961-0.922c-0.354-0.25-46.311-27.539-46.746-27.398c-3.977-2.031-7.281-4.5-10.836-6.195
		c-1.371-0.656-2.961-0.984-4.012-1.102c-0.262-0.031-0.555-0.141-0.81-0.164c-1.065-0.078-2.102-0.008-3.03,0.062
		c-1.523,0.125-2.996,0.398-4.355,0.805c-0.754,0.234-1.43,0.508-2.074,0.758c-0.194,0.078-1.504,0.594-1.547,0.617
		c-0.059,0.016-2.698,1.758-3.69,2.516c-1.918,1.477-3.855,4.391-4.517,6.852c-0.194,0.727-0.203,1.492-0.246,2.258
		c-0.073,1.406-0.065,2.867-0.065,4.312c0,1.062,0,2.203-0.008,3.141C44.996,61.165,44.936,61.892,44.983,62.103z M49.834,51.251
		c0.522-1.211,1.366-2.164,1.836-2.695c0.241-0.242,0.362-0.531,0.565-0.719c0.902-0.836,2.164-1.57,2.978-2.055
		c0.284-0.164,0.457-0.266,0.659-0.367c0.146-0.07,0.103-0.102,0.238-0.156c-0.07,0.023,0.271-0.07,0.355-0.102
		c1.293-0.555,3.305-1.211,4.608-1.258c0.146,0,0.246-0.086,0.355-0.094c0.237-0.008,0.854-0.047,0.938-0.062
		c0.138-0.008,0.281,0.086,0.406,0.086c1.023-0.094,2.41,0.023,3.41,0.312c3.121,0.867,5.844,3.383,9.723,5.25
		c1.431,0.922,53.247,30.844,54.602,31.57c0.633,0.32,1.379,0.797,1.859,0.984c0.449,0.172,0.781,0.43,1.176,0.641
		c0.398,0.219,0.832,0.391,1.102,0.531c0.059,0.031,0.066,0.172,0.137,0.219c0.031,0.023,0.242-0.062,0.293-0.031
		c1.023,0.531,2.143,1.227,2.896,2.164c0.82,1.023,1.285,2.211,1.516,2.891c0.117,0.32,0.297,0.555,0.379,0.836
		c0.305,1.18,0.375,2.641,0.414,3.578c0.008,0.336,0.012,0.523,0.012,0.766c-0.004,0.156,0.047,0.141,0.031,0.289
		c0-0.086-0.094-0.055-0.109,0.07c-0.016,0.086,0.027,0.188,0.027,0.281c-0.113,1.405-0.477,3.483-1.059,4.655
		c-0.066,0.125-0.027,0.258-0.07,0.367c-0.109,0.219-0.336,0.367-0.414,0.562c-0.031,0.062,0.043,0.219,0.027,0.288
		c-0.051,0.125-0.223,0.203-0.262,0.328c-0.406,0.945-1.16,2.109-1.871,2.867c-2.25,2.344-56.965,33.711-60.431,36.242
		c-1.551,0.727-3.082,1.694-4.409,2.477c-0.625,0.345-1.414,0.734-1.828,1.039c-0.396,0.289-0.793,0.438-1.168,0.642
		c-0.406,0.242-0.777,0.5-1.039,0.656c-0.066,0.03-0.328,0.227-0.392,0.258c-0.996,0.594-2.18,1.164-3.375,1.305
		c-1.301,0.148-2.547-0.102-3.246-0.266c-0.331-0.07-0.637-0.048-0.913-0.125c-1.152-0.367-2.431-1.078-3.242-1.562
		c-0.285-0.164-0.465-0.273-0.652-0.391c-0.133-0.086-0.145-0.039-0.262-0.125c0.059,0.039-0.188-0.203-0.263-0.258
		c-1.141-0.859-2.698-2.281-3.383-3.384c-0.069-0.116-0.194-0.164-0.254-0.266c-0.129-0.203-0.477-0.72-0.526-0.781
		c-0.074-0.103-0.052-0.289-0.125-0.383c-0.587-0.853-1.185-2.103-1.431-3.125c-0.789-3.134-0.043-65.913-0.348-70.187
		c0.137-1.703,0.051-3.531,0.043-5.062c0-0.711,0.074-1.594,0-2.102c-0.059-0.484,0.008-0.906,0.023-1.336
		c0-0.461-0.048-0.93-0.048-1.219c0-0.078-0.034-0.398-0.034-0.469C49.276,53.665,49.358,52.36,49.834,51.251z"/>
</g>
</svg>
