<?xml version="1.0" encoding="utf-8"?>
<!-- Generator: Adobe Illustrator 15.0.0, SVG Export Plug-In . SVG Version: 6.00 Build 0)  -->
<!DOCTYPE svg PUBLIC "-//W3C//DTD SVG 1.1//EN" "http://www.w3.org/Graphics/SVG/1.1/DTD/svg11.dtd">
<svg version="1.1" id="Layer_1" xmlns="http://www.w3.org/2000/svg" xmlns:xlink="http://www.w3.org/1999/xlink" x="0px" y="0px"
	 width="189.662px" height="189.662px" viewBox="0 0 189.662 189.662" enable-background="new 0 0 189.662 189.662"
	 xml:space="preserve">
<circle display="none" fill="none" stroke="#2A2A2B" stroke-miterlimit="10" cx="94.831" cy="94.832" r="94.831"/>
<g>
	<path fill="#EE4036" d="M144.679,127.56c-0.07-0.289-0.07-1.608-0.062-1.977c0.008-0.75,0.129-1.484-0.107-2.156
		c0.043-0.438,0.289-0.914-0.053-1.227c-0.203-4.453,0.385-62.789,0.096-66.703c-0.109-1.516-0.609-3.062-1.039-4.039
		c-0.109-0.242-0.152-0.547-0.264-0.773c-0.461-0.969-1.021-1.836-1.551-2.602c-0.871-1.258-1.828-2.414-2.867-3.375
		c-0.572-0.547-1.141-1-1.684-1.43c-0.152-0.133-1.27-1-1.301-1.039c-0.051-0.047-2.871-1.469-4.027-1.953
		c-2.234-0.93-5.719-1.164-8.199-0.516c-0.711,0.188-1.387,0.555-2.074,0.914c-1.25,0.625-2.512,1.352-3.766,2.078
		c-0.922,0.523-1.91,1.094-2.729,1.547c-0.355,0.203-1.018,0.516-1.168,0.656c-0.221,0.211-1.371,0.867-1.691,1.047
		c-0.652,0.359-1.348,0.625-1.82,1.156c-0.391,0.172-0.914,0.203-1.039,0.656c-3.648,2.547-54.652,31.852-57.801,34.188
		c-1.227,0.906-2.262,2.156-2.858,3.031c-0.138,0.219-0.384,0.43-0.509,0.633c-0.586,0.906-1.008,1.852-1.379,2.703
		c-0.602,1.398-1.065,2.836-1.328,4.227c-0.151,0.773-0.229,1.5-0.312,2.188c-0.021,0.203,0.082,0.484,0.059,0.578
		c-0.008,0.055-0.219,0.094-0.219,0.141c-0.012,0.234,0.199,0.539,0.199,0.797c0,0.056-0.211,0.094-0.219,0.142
		c-0.017,0.062,0.137,0.164,0.129,0.219c-0.056,1.281,0.16,2.992,0.362,4.228c0.414,2.391,2.07,5.461,3.935,7.203
		c0.551,0.508,1.219,0.875,1.871,1.272c1.223,0.728,2.496,1.397,3.776,2.069c0.949,0.509,1.949,1.039,2.777,1.484
		c0.363,0.203,0.965,0.602,1.176,0.648c0.289,0.062,0.56,0.156,0.785,0.266c0.324,0.172,0.672,0.422,0.992,0.602
		c0.652,0.367,1.254,0.812,1.961,0.923c0.354,0.25,46.311,27.538,46.747,27.397c3.977,2.031,7.281,4.5,10.836,6.195
		c1.371,0.656,2.961,0.984,4.012,1.102c0.262,0.031,0.555,0.142,0.809,0.164c1.066,0.078,2.102,0.008,3.031-0.062
		c1.523-0.125,2.996-0.397,4.355-0.806c0.754-0.233,1.43-0.508,2.074-0.758c0.193-0.078,1.504-0.594,1.547-0.617
		c0.059-0.016,2.697-1.758,3.689-2.516c1.918-1.477,3.855-4.391,4.518-6.852c0.193-0.727,0.203-1.492,0.246-2.258
		c0.072-1.406,0.064-2.867,0.064-4.312c0-1.062,0-2.203,0.008-3.141C144.667,128.497,144.726,127.771,144.679,127.56z
		 M139.827,138.411c-0.521,1.211-1.367,2.164-1.836,2.695c-0.242,0.242-0.361,0.531-0.564,0.719
		c-0.902,0.836-2.164,1.57-2.979,2.055c-0.285,0.164-0.457,0.266-0.66,0.367c-0.145,0.07-0.102,0.102-0.236,0.156
		c0.068-0.023-0.271,0.07-0.355,0.102c-1.293,0.555-3.305,1.211-4.609,1.258c-0.145,0-0.246,0.086-0.355,0.094
		c-0.238,0.009-0.854,0.047-0.938,0.062c-0.137,0.008-0.281-0.086-0.406-0.086c-1.023,0.094-2.41-0.023-3.41-0.312
		c-3.121-0.867-5.844-3.383-9.723-5.25c-1.43-0.922-53.246-30.844-54.602-31.569c-0.633-0.32-1.379-0.798-1.858-0.984
		c-0.449-0.172-0.781-0.43-1.177-0.641c-0.397-0.22-0.832-0.392-1.102-0.531c-0.059-0.03-0.066-0.172-0.137-0.219
		c-0.031-0.023-0.242,0.062-0.293,0.03c-1.023-0.53-2.142-1.227-2.896-2.164c-0.82-1.022-1.285-2.211-1.516-2.891
		c-0.117-0.32-0.297-0.555-0.379-0.836c-0.306-1.18-0.375-2.641-0.414-3.578c-0.008-0.336-0.012-0.522-0.012-0.766
		c0.004-0.156-0.048-0.141-0.031-0.289c0,0.086,0.094,0.055,0.108-0.07c0.017-0.086-0.026-0.188-0.026-0.281
		c0.112-1.405,0.477-3.483,1.059-4.655c0.066-0.125,0.027-0.258,0.07-0.367c0.108-0.219,0.336-0.367,0.414-0.562
		c0.031-0.062-0.043-0.219-0.027-0.289c0.051-0.125,0.223-0.203,0.262-0.328c0.406-0.945,1.16-2.109,1.871-2.867
		c2.25-2.344,56.964-33.711,60.431-36.242c1.551-0.727,3.082-1.695,4.408-2.477c0.625-0.344,1.414-0.734,1.828-1.039
		c0.396-0.289,0.793-0.438,1.168-0.641c0.406-0.242,0.777-0.5,1.039-0.656c0.066-0.031,0.328-0.227,0.393-0.258
		c0.996-0.594,2.18-1.164,3.375-1.305c1.301-0.148,2.547,0.102,3.246,0.266c0.33,0.07,0.637,0.047,0.912,0.125
		c1.152,0.367,2.432,1.078,3.242,1.562c0.285,0.164,0.465,0.273,0.652,0.391c0.133,0.086,0.145,0.039,0.262,0.125
		c-0.059-0.039,0.189,0.203,0.264,0.258c1.141,0.859,2.697,2.281,3.383,3.383c0.068,0.117,0.193,0.164,0.254,0.266
		c0.129,0.203,0.477,0.719,0.525,0.781c0.074,0.102,0.053,0.289,0.125,0.383c0.588,0.852,1.186,2.102,1.432,3.125
		c0.789,3.133,0.043,65.914,0.348,70.188c-0.137,1.703-0.051,3.53-0.043,5.062c0,0.711-0.074,1.594,0,2.103
		c0.059,0.483-0.008,0.905-0.023,1.336c0,0.461,0.047,0.93,0.047,1.219c0,0.078,0.035,0.398,0.035,0.469
		C140.386,135.997,140.304,137.302,139.827,138.411z"/>
</g>
</svg>
