<?xml version="1.0" encoding="utf-8"?>
<!-- Generator: Adobe Illustrator 15.0.0, SVG Export Plug-In . SVG Version: 6.00 Build 0)  -->
<!DOCTYPE svg PUBLIC "-//W3C//DTD SVG 1.1//EN" "http://www.w3.org/Graphics/SVG/1.1/DTD/svg11.dtd">
<svg version="1.1" id="Layer_1" xmlns="http://www.w3.org/2000/svg" xmlns:xlink="http://www.w3.org/1999/xlink" x="0px" y="0px"
	 width="189.662px" height="189.662px" viewBox="0 0 189.662 189.662" enable-background="new 0 0 189.662 189.662"
	 xml:space="preserve">
<path fill="#082EA5" d="M40.576,89.407c0.199-1.017,0.559-2.103,1.031-3.117c0.242-0.508,0.547-0.977,0.906-1.562
	c0.098-0.141,0.227-0.461,0.27-0.516c0.117-0.148,1.148-1.211,1.422-1.43c0.297-0.242,0.762-0.398,1.168-0.656
	c0.16-0.086,67.773-38.984,72.79-41.07c0.469,0.016,6.27-0.812,11.956,2.867c4.669,3.938,5.599,7.836,5.716,9.484
	c0,1.625,0.129,60.586,0.129,72.391c0,3.25,0.262,6.781-0.396,9.359c-0.155,0.664-0.367,1.078-0.645,1.688
	c-0.043,0.109-0.062,0.25-0.129,0.392c-0.177,0.352-0.595,1.172-0.91,1.694c-0.246,0.384-0.621,0.767-0.91,1.164
	c-0.277,0.392-0.496,0.836-0.777,1.172c-0.422,0.492-1.022,1.062-1.555,1.556c-0.082,0.069-0.191,0.203-0.262,0.258
	c-0.246,0.188-0.595,0.398-0.91,0.648c-0.098,0.077-0.176,0.194-0.258,0.266c-0.23,0.172-0.582,0.414-0.906,0.647
	c-0.133,0.087-0.297,0.031-0.398,0.134c-0.043,0.039-0.082,0.233-0.133,0.258c-0.18,0.108-0.535,0.141-0.776,0.266
	c-0.449,0.234-1.22,0.797-1.812,1.039c-0.484,0.195-1.051,0.25-1.566,0.383c-1.784,0.478-4.483,0.742-6.495,0
	c-0.195-0.055-70.43-40.5-70.835-40.805c-1.027-0.781-2.195-2.055-2.988-3.25c-0.281-0.43-0.435-0.647-0.646-1.164
	c-0.185-0.438-0.53-0.969-0.785-1.57C40.775,97.36,39.83,93.165,40.576,89.407z"/>
<path fill="#FFFFFF" stroke="#000000" stroke-miterlimit="10" d="M156.257,98.76c-0.199,1.017-0.559,2.103-1.031,3.117
	c-0.242,0.508-0.547,0.977-0.906,1.562c-0.098,0.141-0.227,0.461-0.27,0.516c-0.117,0.148-1.148,1.211-1.422,1.43
	c-0.297,0.242-0.762,0.398-1.168,0.656c-0.16,0.086-67.773,38.984-72.79,41.07c-0.469-0.016-6.27,0.812-11.956-2.867
	c-4.669-3.938-5.599-7.836-5.716-9.484c0-1.625-0.129-60.586-0.129-72.391c0-3.25-0.262-6.781,0.396-9.359
	c0.155-0.664,0.367-1.078,0.645-1.688c0.043-0.109,0.062-0.25,0.129-0.392c0.177-0.352,0.595-1.172,0.91-1.694
	c0.246-0.384,0.621-0.767,0.91-1.164c0.277-0.392,0.496-0.836,0.777-1.172c0.422-0.492,1.022-1.062,1.555-1.556
	c0.082-0.069,0.191-0.203,0.262-0.258c0.246-0.188,0.595-0.398,0.91-0.648c0.098-0.077,0.176-0.194,0.258-0.266
	c0.23-0.172,0.582-0.414,0.906-0.647c0.133-0.087,0.297-0.031,0.398-0.134c0.043-0.039,0.082-0.233,0.133-0.258
	c0.18-0.108,0.535-0.141,0.776-0.266c0.449-0.234,1.22-0.797,1.812-1.039c0.484-0.195,1.051-0.25,1.566-0.383
	c1.784-0.478,4.483-0.742,6.495,0c0.195,0.055,70.431,40.5,70.836,40.805c1.027,0.781,2.195,2.055,2.988,3.25
	c0.281,0.43,0.435,0.647,0.646,1.164c0.185,0.438,0.53,0.969,0.785,1.57C156.058,90.806,157.003,95.001,156.257,98.76z"/>
<rect fill="none" width="189.662" height="189.662"/>
<circle display="none" fill="none" stroke="#2A2A2B" stroke-miterlimit="10" cx="94.831" cy="94.832" r="94.831"/>
<path fill="#EE4036" d="M94.065,116.671c10.023-5.18,18.258-9.641,27.852-14.461c5.445-2.75,10.387-4.711,10.387-9.328
	c0-5.047-6.785-7.609-8.094-8.273c-0.871-0.438-31.914-15.664-36.734-17.797c-3.895-1.719-5.316-2.477-8.691-0.352
	c-2.488,2.047-2.555,6.055-2.484,11.789c0.141,9.438-0.137,24.672,0.301,32.906c0.238,4.227,0.406,7.695,4.215,9.484
	C83.413,121.624,89.894,118.835,94.065,116.671z"/>
</svg>
